<?xml version="1.0" standalone="no"?>
<!DOCTYPE svg PUBLIC "-//W3C//DTD SVG 20010904//EN"
 "http://www.w3.org/TR/2001/REC-SVG-20010904/DTD/svg10.dtd">
<svg version="1.0" xmlns="http://www.w3.org/2000/svg"
 width="372.000000pt" height="372.000000pt" viewBox="0 0 372.000000 372.000000"
 preserveAspectRatio="xMidYMid meet">
<metadata>
Created by potrace 1.14, written by Peter Selinger 2001-2017
</metadata>
<g transform="translate(0.000000,372.000000) scale(0.100000,-0.100000)"
fill="#000000" stroke="none">
<path d="M2934 3485 c-327 -59 -509 -416 -370 -722 15 -30 26 -56 26 -57 0 -2
-249 -3 -552 -3 -609 0 -640 -2 -765 -59 -92 -41 -145 -78 -208 -143 -173
-178 -235 -426 -166 -662 54 -186 195 -344 379 -426 100 -44 170 -54 384 -54
144 0 200 -4 202 -12 25 -91 44 -140 72 -180 19 -26 34 -50 35 -55 0 -4 26
-29 57 -56 72 -61 178 -112 262 -126 36 -5 232 -10 442 -10 l376 0 7 -53 c10
-74 36 -128 84 -173 60 -56 116 -73 237 -74 l101 0 -26 -53 c-33 -66 -36 -180
-7 -240 38 -77 138 -156 199 -157 16 0 17 86 17 1665 l0 1665 -357 -1 c-246
-1 -380 -5 -429 -14z"/>
<path d="M1482 3148 c-40 -11 -72 -56 -72 -103 0 -28 7 -44 31 -66 l31 -29
287 0 286 0 27 25 c35 32 44 75 24 117 -29 61 -35 62 -322 63 -144 0 -275 -3
-292 -7z"/>
<path d="M1430 954 c-17 -7 -33 -13 -36 -13 -9 0 -58 -63 -62 -80 -11 -42 -9
-112 5 -138 17 -33 64 -85 71 -78 3 3 11 0 17 -5 23 -19 90 -19 133 0 23 11
42 24 42 30 0 6 4 9 8 6 5 -3 19 13 32 35 18 33 21 52 18 95 -10 117 -125 191
-228 148z"/>
<path d="M2344 604 c-29 -29 -31 -36 -24 -69 5 -20 10 -38 12 -39 48 -36 47
-36 336 -36 196 0 290 4 305 12 56 29 64 94 18 137 l-30 28 -293 0 -293 0 -31
-33z"/>
</g>
</svg>
