<?xml version="1.0" encoding="UTF-8"?>
<svg width="320px" height="180px" viewBox="0 0 320 180" version="1.1" xmlns="http://www.w3.org/2000/svg" xmlns:xlink="http://www.w3.org/1999/xlink">
    <!-- Generator: Sketch 53.2 (72643) - https://sketchapp.com -->
    <title>分组 4</title>
    <desc>Created with Sketch.</desc>
    <defs>
        <rect id="path-1" x="0" y="0" width="320" height="180"></rect>
    </defs>
    <g id="v1.0视觉设计" stroke="none" stroke-width="1" fill="none" fill-rule="evenodd">
        <g id="16:9首页默认图" transform="translate(-157.000000, -132.000000)">
            <g id="分组-4" transform="translate(157.000000, 132.000000)">
                <g id="语音翻译默认图-copy-2">
                    <g id="文">
                        <mask id="mask-2" fill="white">
                            <use xlink:href="#path-1"></use>
                        </mask>
                        <use id="矩形" fill="#B5D5FF" xlink:href="#path-1"></use>
                        <path d="M12.3735088,68.625 C12.5782714,68.625 12.7793775,68.6100746 12.9768271,68.5802239 C13.1742767,68.5503731 13.3753828,68.5130597 13.5801453,68.4682836 C14.3260661,68.3936567 15.0390786,68.1884328 15.7191828,67.8526119 C16.399287,67.516791 16.9879793,67.0876866 17.4852598,66.5652985 C18.5090726,65.4309701 19.020979,64.0578358 19.020979,62.4458955 C19.020979,60.7294776 18.4359431,59.2966418 17.2658714,58.1473881 C16.0957996,56.983209 14.6844006,56.4011194 13.0316742,56.4011194 L13.0316742,56.4011194 L12.6806527,56.4011194 C12.5928973,56.4011194 12.490516,56.4085821 12.3735088,56.4235075 L12.3735088,56.4235075 L12.3735088,21.8339552 C12.3735088,20.1026119 11.8981672,18.6100746 10.9474839,17.3563433 C9.82128982,15.9235075 8.37332602,15.2070896 6.60359249,15.2070896 L6.60359249,15.2070896 L6.4171123,15.2070896 C6.33666987,15.2070896 6.25988391,15.2145522 6.18675442,15.2294776 L6.18675442,15.2294776 L6.23063211,15.2294776 L5.37501714,15.2742537 C4.76072947,15.3488806 4.13912885,15.6100746 3.51021527,16.0578358 C2.8813017,16.505597 2.25970108,17.1324627 1.64541341,17.9384328 C1.45527675,18.1921642 1.27245304,18.4458955 1.09694227,18.6996269 C0.92143151,18.9533582 0.753233694,19.2220149 0.592348828,19.505597 C0.197449609,18.1175373 -0.409525115,17.0093284 -1.22857535,16.1809701 C-2.04762558,15.3526119 -3.122629,14.8339552 -4.45358563,14.625 L-4.45358563,14.625 L-6.71328671,20.6921642 C-5.04593446,20.8712687 -3.90511449,21.483209 -3.29082682,22.5279851 C-2.70579094,23.483209 -2.32551762,25.1847015 -2.15000686,27.6324627 L-2.15000686,27.6324627 L2.12806801,27.6324627 C2.1719457,27.5130597 2.22313634,27.363806 2.28163993,27.1847015 C2.34014352,27.005597 2.40230358,26.8152985 2.46812012,26.613806 L2.56684492,26.3115672 L2.56684492,26.3115672 L2.66556972,26.0093284 C2.73138626,25.8078358 2.79354632,25.625 2.85204991,25.4608209 C3.34933041,24.0429104 3.94899218,22.7891791 4.65103524,21.6996269 C5.01668266,21.0876866 5.27994881,20.7817164 5.44083368,20.7817164 C5.47008547,20.7817164 5.52858906,20.8041045 5.61634444,20.8488806 C5.68947392,21.1324627 5.73700809,21.3488806 5.75894694,21.4981343 C5.78088578,21.6473881 5.7918552,21.7593284 5.7918552,21.8339552 L5.7918552,21.8339552 L5.7918552,61.483209 C5.7918552,62.4682836 5.95274007,63.386194 6.2745098,64.2369403 C6.59627954,65.0876866 7.06430824,65.863806 7.67859591,66.5652985 C8.90717126,67.9384328 10.4721422,68.625 12.3735088,68.625 Z M13.3843515,64.125 C13.102872,64.125 12.8319479,64.0613208 12.5715794,63.9339623 C12.3112108,63.8066038 12.0789902,63.6403302 11.8749175,63.4351415 C11.6708449,63.2299528 11.5054757,62.9929245 11.3788099,62.7240566 C11.2521441,62.4551887 11.1888112,62.1721698 11.1888112,61.875 C11.1888112,61.5636792 11.2521441,61.2735849 11.3788099,61.004717 C11.5054757,60.7358491 11.6708449,60.4988208 11.8749175,60.2936321 C12.0789902,60.0884434 12.3112108,59.9257075 12.5715794,59.8054245 C12.8319479,59.6851415 13.102872,59.625 13.3843515,59.625 C13.679905,59.625 13.964903,59.6851415 14.2393456,59.8054245 C14.5137881,59.9257075 14.7565642,60.0919811 14.9676738,60.3042453 C15.1787835,60.5165094 15.3476712,60.7570755 15.474337,61.0259434 C15.6010028,61.2948113 15.6643357,61.5778302 15.6643357,61.875 C15.6643357,62.1721698 15.6080398,62.4551887 15.4954479,62.7240566 C15.3828561,62.9929245 15.2245239,63.2299528 15.0204512,63.4351415 C14.8163786,63.6403302 14.577121,63.8066038 14.3026785,63.9339623 C14.0282359,64.0613208 13.7221269,64.125 13.3843515,64.125 Z M32.2515441,68.625 C32.2515441,68.2336505 32.2919708,67.699308 32.3728243,67.0219723 C32.4536777,66.3446367 32.5676076,65.6070934 32.7146139,64.8093426 C32.905722,63.8008651 33.1225563,62.7735727 33.3651166,61.7274654 C33.607677,60.6813581 33.864938,59.6427768 34.1368996,58.6117215 C34.4088612,57.5806661 34.6991986,56.5721886 35.0079118,55.5862889 C35.316625,54.6003893 35.6400388,53.6634083 35.9781532,52.775346 C36.2868664,51.9023356 36.6654076,50.9540657 37.1137767,49.9305363 C37.5621459,48.9070069 38.0435914,47.8533737 38.5581134,46.7696367 C39.204941,45.4902249 39.7709152,44.4441176 40.2560359,43.6313149 C40.7411567,42.8185121 41.0866214,42.4045848 41.2924302,42.3895329 C42.1891685,42.374481 42.6375376,42.9012976 42.6375376,43.9699827 L42.6375376,43.9699827 L42.6375376,68.625 L49.2307692,68.625 L49.2307692,44.4666955 C49.2307692,42.0884948 48.54719,40.1091696 47.1800316,38.5287197 C45.7246695,36.8730104 43.8356388,36.0451557 41.5129396,36.0451557 C40.4250932,36.0451557 39.5283549,36.3010381 38.8227247,36.8128028 C38.4111071,37.0987889 37.8010311,37.7761246 36.9924966,38.8448097 L36.9924966,38.8448097 L36.9704456,38.8448097 C36.1472105,39.9285467 35.3423511,41.2267734 34.5558675,42.7394896 C33.7693839,44.2522059 33.0012761,46.0095156 32.2515441,48.0114187 L32.2515441,48.0114187 L32.2515441,43.1571799 C32.2515441,41.1703287 31.6782196,39.4995675 30.5315706,38.1448962 C29.2967179,36.7149654 27.5914451,36 25.4157521,36 C25.0335358,36 24.4161094,36.0451557 23.563473,36.1354671 C22.9166454,36.2408304 22.3139197,36.4816609 21.7552958,36.8579585 C21.1966719,37.2342561 20.6895003,37.7610727 20.2337808,38.4384083 C19.8368639,39.0404844 19.535501,39.6500865 19.3296922,40.2672145 C19.1238834,40.8843426 19.020979,41.5315744 19.020979,42.20891 C19.020979,43.8796713 19.5943035,45.3020761 20.7409525,46.4761246 C21.9023021,47.6652249 23.2841611,48.2597751 24.8865295,48.2597751 C24.9600327,48.2597751 25.0629371,48.2560121 25.1952427,48.2484862 C25.3275484,48.2409602 25.481905,48.2296713 25.6583125,48.2146194 L25.6583125,48.2146194 L25.6583125,68.625 L32.2515441,68.625 Z M25.6690882,43.875 C25.0897323,43.875 24.5827958,43.6470588 24.1482789,43.1911765 L24.1482789,43.1911765 C23.713762,42.7352941 23.4965035,42.2352941 23.4965035,41.6911765 C23.4965035,41.3823529 23.5580601,41.0845588 23.6811732,40.7977941 C23.8042863,40.5110294 23.9708512,40.2647059 24.1808677,40.0588235 C24.3908842,39.8529412 24.6262475,39.6875 24.8869577,39.5625 C25.1476679,39.4375 25.408378,39.375 25.6690882,39.375 C25.9877339,39.375 26.2882748,39.4338235 26.5707108,39.5514706 C26.8531469,39.6691176 27.0957521,39.8308824 27.2985267,40.0367647 C27.5013013,40.2426471 27.6642451,40.4889706 27.7873583,40.7757353 C27.9104714,41.0625 27.972028,41.3676471 27.972028,41.6911765 C27.972028,41.9705882 27.9104714,42.2389706 27.7873583,42.4963235 C27.6642451,42.7536765 27.4940593,42.9852941 27.2768009,43.1911765 C27.0595424,43.3970588 26.8133161,43.5625 26.5381221,43.6875 C26.262928,43.8125 25.9732501,43.875 25.6690882,43.875 Z M78.5690691,68.625 C80.9686349,68.625 82.6856895,67.9125 83.7202329,66.4875 C84.596721,65.2725 85.034965,63.8175 85.034965,62.1225 L85.034965,62.1225 L85.034965,36.495 L78.5044102,36.495 L78.5044102,61.335 C78.5044102,61.905 78.3966452,62.3325 78.1811154,62.6175 C77.9799542,62.9175 77.671028,63.0675 77.254337,63.0675 L77.254337,63.0675 L68.1374237,63.0675 L68.1374237,58.59 C68.1374237,57.84 68.2415965,57.1875 68.449942,56.6325 C68.6582876,56.0775 68.9636215,55.605 69.3659439,55.215 L69.3659439,55.215 C70.0556395,54.63 71.0542612,54.3375 72.361809,54.3375 L72.361809,54.3375 L75.4438861,54.3375 L75.4438861,49.185 L72.491127,49.185 C71.4853209,49.185 70.4220403,49.095 69.301285,48.915 C68.5684834,48.81 67.9290782,48.6 67.3830692,48.285 C66.8370602,47.97 66.3808553,47.58375 66.0144546,47.12625 C65.6480538,46.66875 65.3750493,46.16625 65.1954411,45.61875 C65.0158329,45.07125 64.9260287,44.505 64.9260287,43.92 L64.9260287,43.92 L64.9260287,43.83 C64.9547661,43.92 64.9870955,44.01 65.0230172,44.1 C65.0589388,44.19 65.0984526,44.2875 65.1415586,44.3925 L65.1415586,44.3925 L65.1200056,44.37 C65.8671758,46.395 67.6488894,47.4075 70.4651462,47.4075 C71.7295881,47.4075 72.8575277,47.1 73.8489651,46.485 C75.4295174,45.555 76.2197936,44.025 76.2197936,41.895 C76.2197936,40.005 75.5444667,38.52 74.1938129,37.44 C72.972477,36.48 71.3919247,36 69.4521559,36 C66.6646363,36 64.3369138,36.735 62.4689883,38.205 C60.3567956,39.9 59.3006993,42.2025 59.3006993,45.1125 C59.3006993,47.4225 60.0047635,49.29 61.412892,50.715 C62.1887995,51.48 63.0724719,52.0275 64.0639093,52.3575 C63.8196421,52.5525 63.6005201,52.7625 63.4065432,52.9875 C63.2125663,53.2125 63.0149973,53.4675 62.8138361,53.7525 C61.937348,55.0275 61.4991039,56.7 61.4991039,58.77 L61.4991039,58.77 L61.4991039,63.0675 L59.5593351,63.0675 L59.5593351,68.625 L78.5690691,68.625 Z M70.4895105,43.875 C70.2262443,43.875 69.9629782,43.8208333 69.6997121,43.7125 C69.4364459,43.6041667 69.1951186,43.45 68.9757302,43.25 C68.7563417,43.05 68.5808309,42.8083333 68.4491979,42.525 C68.3175648,42.2416667 68.2517483,41.9333333 68.2517483,41.6 C68.2517483,41.2833333 68.3139083,40.9916667 68.4382284,40.725 C68.5625486,40.4583333 68.7270899,40.225 68.9318525,40.025 C69.136615,39.825 69.3742858,39.6666667 69.6448649,39.55 C69.915444,39.4333333 70.1969925,39.375 70.4895105,39.375 C71.2208053,39.375 71.7765894,39.5583333 72.1568627,39.925 C72.5371361,40.2916667 72.7272727,40.85 72.7272727,41.6 C72.7272727,41.9 72.6614562,42.1875 72.5298231,42.4625 C72.39819,42.7375 72.2299922,42.9791667 72.0252297,43.1875 C71.8204671,43.3958333 71.5827963,43.5625 71.3122172,43.6875 C71.0416381,43.8125 70.7674025,43.875 70.4895105,43.875 Z" id="ไทย" fill="#FFFFFF" fill-rule="nonzero" opacity="0.100000001" mask="url(#mask-2)"></path>
                        <path d="M246.502046,81 L246.502046,64.524358 L253.986014,64.524358 L253.986014,58.7549094 L246.502046,58.7549094 L246.502046,41.625 L239.440559,41.625 L239.440559,81 L246.502046,81 Z M229.370629,48.375 L229.370629,42.75 L213.706294,42.75 L213.706294,48.375 L229.370629,48.375 Z M234.965035,56.25 L234.965035,50.625 L204.755245,50.625 L204.755245,56.25 L234.965035,56.25 Z M221.596792,76.5 C228.596427,76.5 233.846154,72.5694018 233.846154,66.9961656 C233.846154,61.4815951 228.596427,57.375 221.596792,57.375 C214.422166,57.375 209.230769,61.4815951 209.230769,66.9961656 C209.230769,72.5694018 214.480496,76.5 221.596792,76.5 Z M220.41958,70.875 C217.389277,70.875 214.825175,69.0620504 214.825175,66.4721223 C214.825175,63.7526978 217.389277,61.875 220.41958,61.875 C223.391608,61.875 226.013986,63.7526978 226.013986,66.4721223 C226.013986,69.0620504 223.391608,70.875 220.41958,70.875 Z M248.391608,93.375 L248.391608,88.0324468 L218.622757,88.0324468 L218.622757,79.875 L211.468531,79.875 L211.468531,93.375 L248.391608,93.375 Z M298.179733,94.5 L298.179733,75.6271777 L283.77605,75.6271777 L283.77605,66.4912892 L304.335664,66.4912892 L304.335664,60.9015679 L296.566043,60.9015679 C297.58207,55.9729965 298.179733,49.6019164 298.179733,42.75 L262.379707,42.75 L262.379707,48.3998258 L291.187074,48.3998258 C291.24684,51.7055749 290.649177,57.4756098 289.931981,60.9015679 L256.223776,60.9015679 L256.223776,66.4912892 L276.783391,66.4912892 L276.783391,75.6271777 L262.021109,75.6271777 L262.021109,81.216899 L291.24684,81.216899 L291.24684,94.5 L298.179733,94.5 Z M352.447552,94.5 L352.447552,41.625 L345.463347,41.625 L345.463347,61.030303 L336.091378,61.030303 C335.255661,51.594697 330.420441,45.2449495 322.540824,45.2449495 C313.885185,45.2449495 308.811189,53.0189394 308.811189,64.1755051 C308.811189,75.2727273 313.885185,82.9873737 322.540824,82.9873737 C330.480135,82.9873737 335.375049,76.459596 336.151072,66.905303 L345.463347,66.905303 L345.463347,94.5 L352.447552,94.5 Z M322.180384,77.625 C318.336023,77.625 315.524476,72.6227679 315.524476,64.1852679 C315.524476,55.6875 318.336023,50.625 322.180384,50.625 C326.139502,50.625 328.951049,55.6875 328.951049,64.1852679 C328.951049,72.6227679 326.139502,77.625 322.180384,77.625 Z" id="한국어" fill="#FFFFFF" fill-rule="nonzero" opacity="0.200000003" mask="url(#mask-2)"></path>
                        <path d="M380.41958,155.25 L388.251748,143.847627 L388.251748,97.875 L380.41958,108.151661 L380.41958,155.25 Z M365.935129,149.625 L367.680405,148.541047 L367.680405,114.344088 L370.34965,108.539696 L367.132867,105.078041 L366.243119,97.875 L359.12513,103.854223 L360.493974,111.232095 L360.493974,138.540709 L344.615385,138.540709 L344.615385,149.625 L365.935129,149.625 Z M308.797015,147.375 C312.253173,147.375 316.797797,146.328305 322.430887,144.234916 L322.430887,144.234916 L326.7062,141.954224 C330.566325,145.568075 335.739341,147.375 342.225249,147.375 L342.225249,147.375 L344.615385,147.375 L344.615385,136.897036 L342.528224,136.897036 C337.523527,136.897036 334.325458,135.993573 332.934018,134.186647 C335.784226,129.669334 337.209331,126.672482 337.209331,125.196091 C337.209331,123.763772 336.94563,122.65648 336.418229,121.874213 C335.890829,121.091946 335.009957,120.199502 333.775615,119.196878 C332.541272,118.194255 331.155443,117.389953 329.618125,116.783972 C328.080808,116.177991 326.515438,115.875 324.922014,115.875 C321.982035,115.875 319.176711,116.53607 316.506043,117.858211 C315.451242,118.783709 314.205678,120.656742 312.769353,123.477308 C311.333027,126.253804 310.547536,128.115818 310.412881,129.063353 C311.647223,128.644675 313.072328,128.435336 314.688194,128.435336 C315.630783,128.435336 317.123215,129.162513 319.16549,130.616868 C321.207766,132.071222 322.228903,133.195042 322.228903,133.988326 C322.228903,134.032398 322.071805,134.296826 321.757609,134.781611 C317.42619,136.191894 313.762437,136.897036 310.766352,136.897036 L310.766352,136.897036 L302.097902,136.897036 L302.097902,147.375 L308.797015,147.375 Z M284.960238,168.75 C289.381232,168.75 293.835551,165.5311 298.323193,159.093301 C301.100199,154.661483 302.710863,150.591208 303.155184,146.882476 L303.155184,146.882476 L305.454545,146.882476 L305.454545,135.791268 L302.555351,135.791268 C302.288758,134.718301 301.922193,133.715311 301.455656,132.782297 C300.722527,131.242823 299.811668,129.889952 298.723082,128.723684 C297.634495,127.557416 296.412613,126.274522 295.057434,124.875 L295.057434,124.875 L290.525359,134.951555 C295.879427,139.896531 298.578678,143.780203 298.62311,146.602572 C298.62311,147.885467 297.018,150.054725 293.807781,153.110347 C290.597561,156.165969 286.770846,157.810407 282.327636,158.04366 C279.994951,158.066986 277.717806,157.617972 275.496201,156.696621 C273.274595,155.775269 271.552851,154.964713 270.330969,154.264952 L270.330969,154.264952 L268.531469,153.110347 C269.686703,156.655801 271.880538,160.148774 275.112974,163.589264 C278.345409,167.029755 281.627831,168.75 284.960238,168.75 Z M273.004531,147.375 C274.498014,147.375 275.244755,144.59073 275.244755,139.022191 C275.244755,136.049157 274.498014,131.849157 273.004531,126.422191 C271.258305,120.995225 269.443149,117.479494 267.559064,115.875 L267.559064,115.875 L261.700016,125.21882 C262.136573,125.21882 263.141801,126.664045 264.715702,129.554494 C266.289603,132.444944 267.076554,134.208708 267.076554,134.845787 C267.076554,135.71882 266.823811,136.155337 266.318324,136.155337 L266.318324,136.155337 L243.916084,136.155337 L243.916084,147.375 L273.004531,147.375 Z M259.281482,168.75 L262.937063,159.711864 L252.961085,155.25 L249.51049,164.173729 L259.281482,168.75 Z M243.916084,147.375 L243.916084,136.142717 L241.228012,136.142717 C241.228012,134.040354 240.601944,130.739173 239.349808,126.239173 C238.097672,121.739173 236.426243,118.284449 234.335521,115.875 L234.335521,115.875 L228.201203,124.981299 C229.258052,125.878937 230.441263,127.58563 231.750836,130.101378 C233.06041,132.617126 233.715197,134.193898 233.715197,134.831693 C233.715197,135.705709 233.462472,136.142717 232.957022,136.142717 L232.957022,136.142717 L210.34965,136.142717 L210.34965,147.375 L243.916084,147.375 Z M230.931495,167.625 L236.083916,161.4 L229.031311,155.25 L224.390477,161.1 L217.703292,155.325 L212.587413,161.5875 L219.530392,167.625 L224.171225,161.8875 L230.931495,167.625 Z M197.365061,110.25 L202.517483,104.025 L195.464877,97.875 L190.824044,103.725 L184.136858,97.95 L179.020979,104.2125 L185.963958,110.25 L190.604792,104.5125 L197.365061,110.25 Z M212.587413,149.625 L212.554608,138.130475 L207.240215,138.130475 C205.468751,138.154649 204.561149,136.716322 204.517409,133.815496 L204.517409,133.815496 L204.517409,105.75 L198.678139,112.095558 L199.104602,117.570868 L195.791308,118.441116 C190.389436,119.843182 186.999597,122.127583 185.621792,125.294318 C182.713091,132.812293 181.258741,136.970145 181.258741,137.767872 C181.258741,139.097417 182.111668,140.17314 183.817523,140.995041 C189.066305,143.36405 192.35773,144.548554 193.691795,144.548554 L193.691795,144.548554 L194.971186,144.367252 L200.548017,136.136157 C201.029156,136.595455 201.269725,137.260227 201.269725,138.130475 C201.641514,142.554236 202.363221,145.769318 203.434848,147.775723 C204.222165,149.008574 205.77493,149.625 208.093142,149.625 L208.093142,149.625 L212.587413,149.625 Z M197.613138,135 C196.182742,135 194.789708,134.623919 193.434034,133.871758 C192.078361,133.119597 189.884732,131.731988 186.853147,129.708934 C189.521795,126.259366 193.652863,123.523055 199.246351,121.5 C199.481192,121.707493 199.822779,125.662824 200.271112,133.365994 C200.377858,134.455331 199.491866,135 197.613138,135 Z" id="العربية" fill="#FFFFFF" fill-rule="nonzero" opacity="0.100000001" mask="url(#mask-2)"></path>
                        <path d="M88.3916084,20.25 L88.3916084,-3.93592437 L97.3426573,-3.93592437 L97.3426573,-7.875 L74.965035,-7.875 L74.965035,-3.93592437 L83.9160839,-3.93592437 L83.9160839,20.25 L88.3916084,20.25 Z M102.359576,-3.375 C103.153621,-3.375 103.803293,-3.63576159 104.344688,-4.15728477 C104.886082,-4.67880795 105.174825,-5.3865894 105.174825,-6.20612583 C105.174825,-7.02566225 104.886082,-7.69619205 104.380781,-8.21771523 C103.839386,-8.73923841 103.153621,-9 102.359576,-9 C101.565531,-9 100.915858,-8.73923841 100.374464,-8.21771523 C99.8330702,-7.69619205 99.5804196,-7.02566225 99.5804196,-6.20612583 C99.5804196,-5.3865894 99.8330702,-4.7160596 100.374464,-4.15728477 C100.915858,-3.63576159 101.565531,-3.375 102.359576,-3.375 Z M105.174825,19.125 L105.174825,-1.125 L100.699301,-1.125 L100.699301,19.125 L105.174825,19.125 Z M125.165501,-6.75 L130.909091,-11.25 L126.571275,-11.25 L123.076923,-7.1557377 L125.165501,-6.75 Z M115.611602,-3.375 L118.619741,-6.14732143 L121.591196,-3.375 L124.195804,-3.375 L120.453972,-7.875 L116.748825,-7.875 L113.006993,-3.375 L115.611602,-3.375 Z M119.217114,20.25 C121.805768,20.25 123.944221,19.4655963 125.669991,17.9360092 C127.020593,16.6809633 127.920994,15.0729358 128.371195,13.190367 L124.094288,13.190367 C123.569054,14.3277523 123.006303,15.1513761 122.368519,15.6612385 C121.543151,16.2887615 120.492683,16.6025229 119.179598,16.6025229 C117.641412,16.6025229 116.440877,16.0926606 115.615509,15.112156 C114.790141,14.1316514 114.302423,12.6805046 114.152357,10.7979358 L128.671329,10.7979358 C128.671329,7.15045872 127.883477,4.28738532 126.345292,2.24793578 C124.657039,-0.0268348624 122.218452,-1.125 119.029531,-1.125 C116.140743,-1.125 113.852223,-0.105275229 112.201487,1.9733945 C110.475718,4.01284404 109.65035,6.52293578 109.65035,9.54288991 C109.65035,12.9158257 110.550751,15.543578 112.351554,17.465367 C114.039806,19.3087156 116.328327,20.25 119.217114,20.25 Z M124.195804,6.75 L114.125874,6.75 C114.390872,5.274 114.920869,4.158 115.715863,3.402 C116.548714,2.61 117.646564,2.25 119.085125,2.25 C122.113676,2.25 123.817235,3.726 124.195804,6.75 Z M136.178269,20.25 L136.178269,7.7309322 C136.323893,6.08050847 136.833579,4.79237288 137.707325,3.90677966 C138.471854,3.10169492 139.382006,2.69915254 140.401377,2.69915254 C143.241054,2.69915254 144.660892,4.38983051 144.660892,7.81144068 L144.660892,20.25 L148.811189,20.25 L148.811189,7.40889831 C148.811189,1.69279661 146.444792,-1.125 141.748403,-1.125 C140.619814,-1.125 139.600443,-0.883474576 138.653884,-0.360169492 C137.743731,0.122881356 136.906391,0.887711864 136.178269,1.85381356 L136.178269,-0.561440678 L132.027972,-0.561440678 L132.027972,20.25 L136.178269,20.25 Z M163.100326,27 C169.23857,27 172.307692,23.7718708 172.307692,17.3549798 L172.307692,-1.69885599 L167.988187,-1.69885599 L167.988187,0.781292059 C166.548352,-1.26581427 164.615942,-2.25 162.190956,-2.25 C159.538629,-2.25 157.378876,-1.3051817 155.749589,0.584454913 C154.082412,2.47409152 153.286713,4.95423957 153.286713,8.02489906 C153.286713,11.0955585 154.082412,13.5757066 155.749589,15.4259758 C157.378876,17.2368775 159.538629,18.1816958 162.190956,18.1816958 C164.615942,18.1816958 166.548352,17.1187752 167.988187,15.0323015 L167.988187,18.0242261 C167.988187,21.6460296 166.3589,23.4569314 163.100326,23.4569314 C161.58471,23.4569314 160.485889,23.2207268 159.803861,22.7876851 C159.083944,22.3152759 158.629259,21.5279273 158.401917,20.3862719 L154.082412,20.3862719 C154.461316,22.6695828 155.370685,24.3230148 156.81052,25.4253028 C158.250355,26.448856 160.334327,27 163.100326,27 Z M163.879062,15.75 C162.027972,15.75 160.732209,15.0628743 159.917729,13.7290419 C159.214315,12.5973054 158.881119,11.0613772 158.881119,9.08083832 C158.881119,6.89820359 159.325381,5.24101796 160.213904,4.06886228 C161.102427,2.85628743 162.324146,2.25 163.916084,2.25 C165.508021,2.25 166.766763,2.85628743 167.655286,4.06886228 C168.506787,5.28143713 168.951049,6.93862275 168.951049,9.08083832 C168.951049,11.1826347 168.506787,12.7994012 167.655286,14.011976 C166.766763,15.1437126 165.508021,15.75 163.879062,15.75 Z M199.668396,19.125 L206.993007,-1.125 L202.237762,-1.125 L197.482517,13.5631044 L192.727273,-1.125 L187.972028,-1.125 L195.296639,19.125 L199.668396,19.125 Z M213.128807,-3.375 C213.922851,-3.375 214.572524,-3.63576159 215.113918,-4.15728477 C215.655312,-4.67880795 215.944056,-5.3865894 215.944056,-6.20612583 C215.944056,-7.02566225 215.655312,-7.69619205 215.150011,-8.21771523 C214.608617,-8.73923841 213.922851,-9 213.128807,-9 C212.334762,-9 211.685089,-8.73923841 211.143695,-8.21771523 C210.602301,-7.69619205 210.34965,-7.02566225 210.34965,-6.20612583 C210.34965,-5.3865894 210.602301,-4.7160596 211.143695,-4.15728477 C211.685089,-3.63576159 212.334762,-3.375 213.128807,-3.375 Z M214.825175,19.125 L214.825175,-1.125 L210.34965,-1.125 L210.34965,19.125 L214.825175,19.125 Z M226.105868,-5.625 L229.901172,-9.0771028 L229.958968,-9.0771028 L233.754272,-5.625 L237.202797,-5.625 L232.559811,-11.25 L227.300329,-11.25 L222.657343,-5.625 L226.105868,-5.625 Z M229.991479,20.25 C232.263044,20.25 234.666817,19.8449477 237.202797,19.0348432 L237.202797,19.0348432 L237.202797,14.9581882 C234.95527,15.8597561 232.9361,16.3105401 231.14529,16.3105401 C227.359348,16.3105401 225.286094,14.2591463 224.925528,10.1563589 L224.925528,10.1563589 L237.202797,10.1563589 C237.202797,5.8575784 236.53575,2.71515679 235.201656,0.729094077 C233.867562,-1.25696864 231.752242,-2.25 228.855696,-2.25 C225.983188,-2.25 223.672561,-1.23410279 221.923816,0.797691638 C220.175072,2.82948606 219.300699,5.51132404 219.300699,8.84320557 C219.300699,12.3710801 220.256199,15.1541812 222.167198,17.1925087 C224.078198,19.2308362 226.686291,20.25 229.991479,20.25 Z M232.727273,6.75 L224.895105,6.75 C225.279424,3 226.690805,1.125 229.129246,1.125 C231.527931,1.125 232.727273,3 232.727273,6.75 L232.727273,6.75 Z M231.608392,29.25 L231.608392,23.625 L226.013986,23.625 L226.013986,29.25 L231.608392,29.25 Z M252.370238,19.125 L252.370238,15.4144737 L249.771098,15.4144737 C249.312427,15.4144737 249.006646,15.2960526 248.77731,15.0592105 C248.547974,14.7828947 248.471528,14.4276316 248.471528,13.9539474 L248.471528,2.42763158 L252.867133,2.42763158 L252.867133,-1.28289474 L248.471528,-1.28289474 L248.471528,-7.875 L244.114147,-6.01973684 L244.114147,-1.28289474 L240.559441,-1.28289474 L240.559441,2.42763158 L244.114147,2.42763158 L244.114147,13.9539474 C244.114147,15.6118421 244.496373,16.8355263 245.260826,17.7039474 C246.063502,18.6513158 247.324849,19.125 249.044868,19.125 L252.370238,19.125 Z" id="Tiếngviệt" fill="#FFFFFF" fill-rule="nonzero" opacity="0.200000003" mask="url(#mask-2)"></path>
                        <path d="M50.9432352,194.625 C68.1887127,190.879005 80.9297745,185.582944 88.9090252,178.736816 C98.175252,170.469793 102.937063,158.973465 102.937063,143.989486 C102.937063,130.684746 97.9178568,119.705107 88.0081421,110.921395 C77.9697298,102.137684 65.4860632,97.875 50.8145376,97.875 C33.3116649,97.875 19.1549296,103.429406 8.34433172,114.796562 C-1.69408057,125.13034 -6.71328671,137.27253 -6.71328671,151.352303 C-6.71328671,160.652704 -4.39673003,168.661382 0.365080928,175.249166 C5.38428707,182.224466 12.0765619,185.712116 20.4419055,185.712116 C29.7081322,185.712116 37.1725927,180.15771 42.8352868,169.307243 C47.0823074,161.04022 50.2997472,149.543892 52.6163039,134.818258 L55.4476509,110.792223 C63.5555993,111.567256 70.7626646,114.409045 76.9401491,119.188418 C85.0480974,125.388685 89.1664204,133.655708 89.1664204,143.989486 C89.1664204,154.839953 85.820283,163.236148 79.2567057,169.048899 C72.5644309,174.732477 61.753833,179.124332 46.567517,181.966121 L50.9432352,194.625 Z M19.9267399,173.25 C16.2422193,173.25 13.1929609,171.31237 10.7789646,167.566284 C7.98381106,163.432672 6.71328671,158.136482 6.71328671,151.548539 C6.71328671,139.922756 11.0330695,130.105428 19.6726351,122.225731 C26.0252568,116.283664 33.2672456,112.666754 41.3986014,111.375 C40.3821819,121.709029 38.8575527,131.655532 37.0788186,141.085334 C32.7590358,162.528445 27.0416763,173.25 19.9267399,173.25 Z" id="の" fill="#FFFFFF" fill-rule="nonzero" opacity="0.200000003" mask="url(#mask-2)"></path>
                    </g>
                </g>
                <g id="分组-4-copy" transform="translate(122.000000, 34.000000)">
                    <path d="M67,47 L67,62 C67,78.5685425 53.5685425,92 37,92 C20.4314575,92 7,78.5685425 7,62 L7,47 L67,47 Z M61,53 L13,53 L13,62 C13,75.1222857 23.5313372,85.7848457 36.6031161,85.9967847 L37,86 C50.1222857,86 60.7848457,75.4686628 60.9967847,62.3968839 L61,62 L61,53 Z" id="矩形备份-100" fill="#398EFF" fill-rule="nonzero"></path>
                    <rect id="矩形备份-101" fill="#398EFF" x="0" y="47" width="75" height="7"></rect>
                    <rect id="矩形备份-102" fill="#398EFF" x="25" y="105" width="25" height="7"></rect>
                    <rect id="矩形备份-103" fill="#85B9FF" x="18" y="0" width="38" height="82" rx="19"></rect>
                    <rect id="矩形备份-104" fill="#398EFF" x="33" y="88" width="8" height="24"></rect>
                    <rect id="矩形备份-106" fill="#579DFF" x="18" y="44" width="38" height="13"></rect>
                </g>
            </g>
        </g>
    </g>
</svg>